# xmcd CD database file
#
# Track frame offsets:
#	150
#	13125
#	25845
#	37775
#	50265
#	63777
#	75622
#	89082
#	99972
#	112822
#	126575
#	140082
#
# Disc length: 2021 seconds
#
# Revision: 1
# Processed by: cddbd v1.5.1PL0 Copyright (c) Steve Scherf et al.
# Submitted via: CDex 1.51
#
DISCID=9507e30c
DTITLE=Various Artist - Living The Blues - Blues Greats
DYEAR=1999
DGENRE=Blues
TTITLE0=Muddy Waters - Im Your Hoochie Coochie Man
TTITLE1=Jimmy Rogers - Walking By Myself
TTITLE2=Little Walter - My Babe
TTITLE3=Howlin' Wolf - Spoonfull
TTITLE4=Bo Diddley - Im a Man
TTITLE5=Sonny Boy Williamson - Bring It On Home
TTITLE6=Otis Rush - I Cant Quit You Baby
TTITLE7=Jimmy Reed - Baby What You Want Me To Do
TTITLE8=Willie Mae "Big Mama" Thornton - Hound Dog
TTITLE9=Koko Taylor - Wang Dang Doodle
TTITLE10=Bobby Bland - Farther Up The Road
TTITLE11=B.B.King - Paying The Cost To Be The Boss
EXTD=YEAR: 1999
EXTT0=
EXTT1=
EXTT2=
EXTT3=
EXTT4=
EXTT5=
EXTT6=
EXTT7=
EXTT8=
EXTT9=
EXTT10=
EXTT11=
PLAYORDER=
